# xmcd CD database file
#
# Track frame offsets:
#	150
#	54187
#	112737
#	136435
#	178740
#	224070
#	263515
#	299927
#
# Disc length: 4532 seconds
#
# Revision: 0
# Processed by: cddbd v1.5.1PL0 Copyright (c) Steve Scherf et al.
# Submitted via: CDex 1.51
#
DISCID=7d11b208
DTITLE=Bob Cooper and Carl Fontana - The Kenton Alumni Series Live At The Royal Palms Inn Disc 3
DYEAR=1900
DGENRE=Jazz
TTITLE0=Billie's Bounce
TTITLE1=If I should Lose You
TTITLE2=Speak Low
TTITLE3=If You Could See Me Now
TTITLE4=Tangerine
TTITLE5=The One I Love Belongs To Somebody Else
TTITLE6=Cotton Tail
TTITLE7=We'll Be Together Again
EXTD=
EXTT0=
EXTT1=
EXTT2=
EXTT3=
EXTT4=
EXTT5=
EXTT6=
EXTT7=
PLAYORDER=
